<svg id="Layer_1" data-name="Layer 1" xmlns="http://www.w3.org/2000/svg" xmlns:xlink="http://www.w3.org/1999/xlink" viewBox="0 0 110.05 115.84"><defs><style>.cls-1{fill:url(#linear-gradient);}.cls-2{fill:#c66600;}</style><linearGradient id="linear-gradient" x1="61.76" y1="248.33" x2="95.02" y2="301.63" gradientTransform="matrix(1.99, 0, 0, -1.99, -99.63, 610.25)" gradientUnits="userSpaceOnUse"><stop offset="0" stop-color="#ff4652"/><stop offset="1" stop-color="#ffc141"/></linearGradient></defs><title>Delega</title><g id="g46100"><path id="path46096" class="cls-1" d="M40.86,2.08,5,38v80H49c41.71,0,66-24.82,66-58.25v-.33C115,25.91,91,2.08,49.66,2.08ZM38,42.44H67.56v5.9H38V89.68H79.37V66.06h5.9V89.68a5.92,5.92,0,0,1-5.9,5.9H38a5.92,5.92,0,0,1-5.9-5.9V48.34A5.92,5.92,0,0,1,38,42.44Zm43.11,4.72,4.13,4.13L55.75,80.82,42.46,67.53,46.6,63.4l9.15,9.15Z" transform="translate(-4.97 -2.08)"/><path id="path46098" class="cls-2" d="M40.86,38V2.08L5,38Z" transform="translate(-4.97 -2.08)"/></g></svg>