<svg id="Layer_1" data-name="Layer 1" xmlns="http://www.w3.org/2000/svg" xmlns:xlink="http://www.w3.org/1999/xlink" viewBox="0 0 214.54 67.77"><defs><style>.cls-1{fill:url(#linear-gradient);}.cls-2{fill:#c66600;}.cls-3{font-size:48.97px;fill:#4d4d4d;font-family:Helvetica-Bold, Helvetica;font-weight:700;}</style><linearGradient id="linear-gradient" x1="93.11" y1="379.45" x2="108.03" y2="403.37" gradientTransform="matrix(1.99, 0, 0, -1.99, -165.33, 814.92)" gradientUnits="userSpaceOnUse"><stop offset="0" stop-color="#ff4652"/><stop offset="1" stop-color="#ffc141"/></linearGradient></defs><title>delega-logo</title><g id="g46100"><path id="path46096" class="cls-1" d="M27.71,9.23l-16.1,16.1V61.22H31.36C50.08,61.22,61,50.08,61,35.07v-.14c0-15-10.77-25.7-29.34-25.7ZM26.44,27.34H39.7V30H26.44V48.54H45V37.94h2.65v10.6A2.66,2.66,0,0,1,45,51.19H26.44a2.66,2.66,0,0,1-2.65-2.65V30A2.66,2.66,0,0,1,26.44,27.34Zm19.35,2.12,1.86,1.85L34.4,44.57l-6-6,1.86-1.85,4.11,4.11Z" transform="translate(-11.61 -9.23)"/><path id="path46098" class="cls-2" d="M27.71,25.33V9.23l-16.1,16.1Z" transform="translate(-11.61 -9.23)"/></g><text class="cls-3" transform="translate(53.94 44.22)">Delega</text></svg>